<svg width="44" height="44" viewBox="0 0 44 44" fill="none" xmlns="http://www.w3.org/2000/svg">
<rect width="44" height="44" rx="22" fill="white"/>
<path d="M31.97 28.33C31.97 28.69 31.89 29.06 31.72 29.42C31.55 29.78 31.33 30.12 31.04 30.44C30.55 30.98 30.01 31.37 29.4 31.62C28.8 31.87 28.15 32 27.45 32C26.43 32 25.34 31.76 24.19 31.27C23.04 30.78 21.89 30.12 20.75 29.29C19.6 28.45 18.51 27.52 17.47 26.49C16.44 25.45 15.51 24.36 14.68 23.22C13.86 22.08 13.2 20.94 12.72 19.81C12.24 18.67 12 17.58 12 16.54C12 15.86 12.12 15.21 12.36 14.61C12.6 14 12.98 13.44 13.51 12.94C14.15 12.31 14.85 12 15.59 12C15.87 12 16.15 12.06 16.4 12.18C16.66 12.3 16.89 12.48 17.07 12.74L19.39 16.01C19.57 16.26 19.7 16.49 19.79 16.71C19.88 16.92 19.93 17.13 19.93 17.32C19.93 17.56 19.86 17.8 19.72 18.03C19.59 18.26 19.4 18.5 19.16 18.74L18.4 19.53C18.29 19.64 18.24 19.77 18.24 19.93C18.24 20.01 18.25 20.08 18.27 20.16C18.3 20.24 18.33 20.3 18.35 20.36C18.53 20.69 18.84 21.12 19.28 21.64C19.73 22.16 20.21 22.69 20.73 23.22C21.27 23.75 21.79 24.24 22.32 24.69C22.84 25.13 23.27 25.43 23.61 25.61C23.66 25.63 23.72 25.66 23.79 25.69C23.87 25.72 23.95 25.73 24.04 25.73C24.21 25.73 24.34 25.67 24.45 25.56L25.21 24.81C25.46 24.56 25.7 24.37 25.93 24.25C26.16 24.11 26.39 24.04 26.64 24.04C26.83 24.04 27.03 24.08 27.25 24.17C27.47 24.26 27.7 24.39 27.95 24.56L31.26 26.91C31.52 27.09 31.7 27.3 31.81 27.55C31.91 27.8 31.97 28.05 31.97 28.33Z" stroke="#640EF1" stroke-width="2" stroke-miterlimit="10"/>
</svg>
