<svg width="44" height="44" viewBox="0 0 44 44" fill="none" xmlns="http://www.w3.org/2000/svg">
<rect width="44" height="44" rx="22" fill="white"/>
<path d="M22 32C27.5228 32 32 27.5228 32 22C32 16.4772 27.5228 12 22 12C16.4772 12 12 16.4772 12 22C12 27.5228 16.4772 32 22 32Z" stroke="#640EF1" stroke-width="2" stroke-linecap="round" stroke-linejoin="round"/>
<path d="M18 13H19C17.05 18.84 17.05 25.16 19 31H18" stroke="#640EF1" stroke-width="2" stroke-linecap="round" stroke-linejoin="round"/>
<path d="M25 13C26.95 18.84 26.95 25.16 25 31" stroke="#640EF1" stroke-width="2" stroke-linecap="round" stroke-linejoin="round"/>
<path d="M13 26V25C18.84 26.95 25.16 26.95 31 25V26" stroke="#640EF1" stroke-width="2" stroke-linecap="round" stroke-linejoin="round"/>
<path d="M13 19.0001C18.84 17.0501 25.16 17.0501 31 19.0001" stroke="#640EF1" stroke-width="2" stroke-linecap="round" stroke-linejoin="round"/>
</svg>
